<?xml version="1.0" encoding="utf-8"?>
<!-- Generator: Adobe Illustrator 18.1.1, SVG Export Plug-In . SVG Version: 6.00 Build 0)  -->
<!DOCTYPE svg PUBLIC "-//W3C//DTD SVG 1.1//EN" "http://www.w3.org/Graphics/SVG/1.1/DTD/svg11.dtd">
<svg version="1.1" id="Facebook" xmlns="http://www.w3.org/2000/svg" xmlns:xlink="http://www.w3.org/1999/xlink" x="0px" y="0px"
	 viewBox="400 0 800 800" enable-background="new 400 0 800 800" xml:space="preserve">
<path fill="#CDDBD8" d="M1080,40H520c-44,0-80,36-80,80v560c0,44,36,80,80,80h280V480h-80v-99h80v-82c0-86.6,48.5-147.4,150.6-147.4
	l72.1,0.1v104.2h-47.9c-39.8,0-54.9,29.8-54.9,57.5V381h102.7l-22.7,99h-80v280h160c44,0,80-36,80-80V120C1160,76,1124,40,1080,40z"
	/>
</svg>
