<?xml version="1.0" encoding="utf-8"?>
<!-- Generator: Adobe Illustrator 18.1.1, SVG Export Plug-In . SVG Version: 6.00 Build 0)  -->
<!DOCTYPE svg PUBLIC "-//W3C//DTD SVG 1.1//EN" "http://www.w3.org/Graphics/SVG/1.1/DTD/svg11.dtd">
<svg version="1.1" id="Twitter" xmlns="http://www.w3.org/2000/svg" xmlns:xlink="http://www.w3.org/1999/xlink" x="0px" y="0px"
	 viewBox="400 56 800 744" enable-background="new 400 56 800 744" xml:space="preserve">
<path fill="#CDDBD8" d="M1092.6,277.8c0.3,6.5,0.4,13,0.4,19.5C1093.1,497,941.2,727,663.5,727c-85.3,0-164.6-25-231.5-67.9
	c11.8,1.4,23.8,2.1,36,2.1c70.8,0,135.9-24.2,187.5-64.6c-66-1.2-121.8-44.8-141-104.8c9.2,1.7,18.7,2.6,28.4,2.6
	c13.8,0,27.2-1.8,39.8-5.2c-69.1-13.9-121.1-74.9-121.1-148.1c0-0.6,0-1.2,0-1.9c20.4,11.3,43.7,18.1,68.4,18.9
	c-40.5-27.1-67.2-73.3-67.2-125.7c0-27.6,7.4-53.6,20.5-75.9C557.7,247.9,669,308,794.5,314.3c-2.6-11.1-3.9-22.6-3.9-34.4
	c0-83.4,67.6-150.9,151-150.9c43.4,0,82.7,18.3,110.2,47.6c34.4-6.8,66.7-19.4,95.9-36.6c-11.3,35.2-35.2,64.8-66.4,83.5
	c30.6-3.7,59.6-11.7,86.7-23.8C1147.8,230,1122.2,256.6,1092.6,277.8z"/>
</svg>
