<?xml version="1.0" encoding="utf-8"?>
<!-- Generator: Adobe Illustrator 18.1.1, SVG Export Plug-In . SVG Version: 6.00 Build 0)  -->
<!DOCTYPE svg PUBLIC "-//W3C//DTD SVG 1.1//EN" "http://www.w3.org/Graphics/SVG/1.1/DTD/svg11.dtd">
<svg version="1.1" id="Layer_1" xmlns="http://www.w3.org/2000/svg" xmlns:xlink="http://www.w3.org/1999/xlink" x="0px" y="0px"
	 viewBox="400 0 800 800" enable-background="new 400 0 800 800" xml:space="preserve">
<g>
	<path fill="#CDDBD8" d="M1158.1,28c0,1.5,0,2.5,0,3.6c0,149.3,0,298.6,0,447.9c0,2.2-0.7,3.7-2.2,5.2
		C1092.5,548.1,1029,611.5,965.6,675c-1.5,1.5-3,2.1-5.1,2.1c-46.4,0-92.8,0-139.4-0.1c-2.7,0-4.5,0.9-6.3,2.7
		c-30.8,31-61.7,61.8-92.4,92.7c-1.5,1.5-3,2.1-5.1,2.1c-30.4,0-60.8,0-91.2,0c-0.9,0-1.9,0-3.3,0c0-32.5,0-64.8,0-97.3
		c-59.6,0-118.9,0-178.5,0c0-1.3,0-2.4,0-3.4c0-171,0-342,0-513.2c0-1.5,0.1-3.1,0.7-4.5c15.6-41.8,31.3-83.6,46.9-125.5
		c0.7-1.9,1.6-2.5,3.7-2.5c219.7,0,439.5,0,659.2,0C1156,28,1156.7,28,1158.1,28z M704,660.6c1.2-1.2,1.9-1.8,2.7-2.5
		c30.7-30.7,61.4-61.4,92.1-92.2c1.8-1.8,3.4-2.4,5.8-2.4c57.2,0,114.6,0,171.8,0.1c2.2,0,3.9-0.6,5.5-2.2
		c36.4-36.5,72.8-72.9,109.3-109.3c1.5-1.5,2.1-3,2.1-5.1c0-116.8,0-233.6,0-350.4c0-1,0-2.1,0-3.3c-178.5,0-356.9,0-535.1,0
		c0,156.8,0,313.6,0,470.5c48.7,0,97.2,0,145.9,0C704,595.9,704,627.9,704,660.6z"/>
	<path fill="#CDDBD8" d="M736.5,222.9c21.6,0,43,0,64.5,0c0,64.8,0,129.5,0,194.4c-21.4,0-42.8,0-64.5,0
		C736.5,352.6,736.5,287.7,736.5,222.9z"/>
	<path fill="#CDDBD8" d="M915,222.9c21.4,0,42.8,0,64.4,0c0,64.7,0,129.4,0,194.4c-21.4,0-42.8,0-64.4,0
		C915,352.6,915,287.7,915,222.9z"/>
</g>
</svg>
