<?xml version="1.0" encoding="utf-8"?>
<!-- Generator: Adobe Illustrator 18.1.1, SVG Export Plug-In . SVG Version: 6.00 Build 0)  -->
<!DOCTYPE svg PUBLIC "-//W3C//DTD SVG 1.1//EN" "http://www.w3.org/Graphics/SVG/1.1/DTD/svg11.dtd">
<svg version="1.1" id="Vimeo" xmlns="http://www.w3.org/2000/svg" xmlns:xlink="http://www.w3.org/1999/xlink" x="0px" y="0px"
	 viewBox="400 0 800 800" enable-background="new 400 0 800 800" xml:space="preserve">
<path fill="#CDDBD8" d="M1156.4,233.6c-40.2,230.9-265,426.4-332.6,471.1c-67.6,44.6-129.3-17.9-151.7-65.2
	C646.5,585.6,569.8,293.2,549.6,269c-20.1-24.2-80.4,24.2-80.4,24.2l-29.2-39c0,0,122.4-149,215.6-167.6
	c98.8-19.7,98.6,154.6,122.4,251.3c23,93.7,38.4,147.2,58.5,147.2c20.1,0,58.5-52.2,100.5-132.2c42.1-80.2-1.8-150.9-84-100.6
	C885.9,51.2,1196.6,2.8,1156.4,233.6z"/>
</svg>
